<?xml version="1.0" standalone="no"?>
<!DOCTYPE svg PUBLIC "-//W3C//DTD SVG 20010904//EN"
 "http://www.w3.org/TR/2001/REC-SVG-20010904/DTD/svg10.dtd">
<svg version="1.0" xmlns="http://www.w3.org/2000/svg"
 width="184.000000pt" height="184.000000pt" viewBox="0 0 184.000000 184.000000"
 preserveAspectRatio="xMidYMid meet">
<metadata>
Created by potrace 1.13, written by Peter Selinger 2001-2015
</metadata>
<g transform="translate(0.000000,184.000000) scale(0.080000,-0.080000)"
fill="#000000" stroke="none">
<path d="M1034 2116 c-27 -32 -40 -42 -46 -33 -6 9 -11 8 -19 -6 -6 -9 -14
-15 -19 -12 -4 3 -11 -3 -14 -12 -6 -14 -10 -13 -32 8 l-25 24 3 -40 c3 -35 0
-40 -19 -43 -13 -2 -23 -9 -23 -15 0 -9 -3 -8 -8 1 -7 10 -13 9 -28 -5 -11
-10 -23 -26 -27 -35 -4 -11 -13 -15 -26 -11 -15 4 -21 1 -21 -12 0 -11 -5 -15
-15 -11 -8 3 -15 1 -15 -4 0 -6 -10 -10 -21 -10 -18 0 -19 -2 -9 -15 16 -20
10 -26 -29 -27 -22 -1 -29 -4 -21 -12 15 -15 12 -26 -7 -19 -13 5 -15 2 -11
-15 4 -12 -1 -28 -12 -40 -14 -14 -16 -22 -7 -31 8 -8 6 -11 -8 -12 -19 0 -19
-1 0 -9 14 -6 15 -9 5 -10 -10 0 -6 -5 9 -14 16 -9 20 -16 12 -20 -6 -4 -9
-12 -5 -17 3 -6 -11 -26 -33 -45 -24 -23 -34 -37 -25 -40 6 -3 9 -10 6 -15 -3
-6 11 -3 31 5 20 9 47 13 60 10 21 -5 24 -1 30 36 4 25 19 55 35 74 27 30 30
30 47 13 16 -16 16 -19 0 -46 -9 -15 -14 -31 -10 -34 3 -4 0 -20 -7 -37 -9
-22 -10 -33 -1 -44 6 -7 9 -20 5 -29 -7 -20 16 -34 27 -16 7 12 10 12 18 1 7
-11 9 -11 14 2 5 12 15 15 44 10 39 -6 57 -14 32 -14 -9 0 -14 -11 -15 -31 -1
-20 -9 -36 -25 -47 -28 -20 -37 -21 -64 -10 -20 9 -20 9 0 -9 18 -15 20 -24
13 -63 -4 -25 -10 -58 -12 -75 -4 -37 -26 -85 -38 -85 -5 0 -6 -5 -3 -11 4 -6
-2 -13 -14 -16 -12 -3 -21 -10 -21 -15 0 -6 -7 -5 -15 2 -17 14 -31 8 -20 -9
9 -15 28 -14 76 5 30 13 37 19 27 26 -9 6 -6 7 9 3 22 -6 58 11 100 48 l22 19
16 -38 c17 -42 14 -74 -11 -98 -12 -12 -12 -16 -2 -16 10 0 9 -3 -2 -10 -12
-8 -8 -10 15 -11 57 -2 82 -13 90 -40 5 -15 9 -16 19 -6 11 10 10 15 -7 29
-11 10 -24 18 -29 18 -5 0 -6 5 -2 12 5 8 -4 9 -32 5 l-39 -6 39 19 c21 11 43
17 47 14 5 -3 9 -1 9 3 0 5 9 9 21 10 15 1 19 -2 15 -13 -4 -10 -1 -14 6 -11
7 2 12 10 11 16 -2 6 6 11 17 11 11 0 20 -5 20 -11 0 -5 4 -8 10 -4 5 3 7 12
3 20 -6 16 14 20 35 7 9 -6 6 -12 -13 -20 -14 -6 -25 -17 -25 -23 0 -6 -7 -9
-15 -5 -9 3 -15 0 -15 -9 0 -9 -6 -12 -15 -9 -8 4 -15 1 -15 -6 0 -6 4 -9 9
-5 5 3 12 1 16 -4 3 -5 -2 -14 -11 -19 -15 -8 -12 -11 14 -17 18 -3 32 -13 32
-21 0 -8 5 -14 10 -14 13 0 13 16 0 40 -7 14 -6 17 8 16 9 0 16 4 15 10 -1 7
14 12 38 12 35 1 39 -1 28 -14 -7 -8 -8 -14 -3 -13 5 1 22 -3 38 -10 23 -9 27
-14 17 -24 -8 -8 -14 -9 -19 -1 -4 6 -15 10 -25 8 -9 -1 -15 2 -11 7 3 5 0 9
-5 9 -6 0 -11 -4 -11 -10 0 -5 -8 -10 -17 -10 -14 0 -15 2 -4 9 9 6 10 14 4
25 -8 15 -11 15 -21 3 -9 -10 -9 -21 0 -45 7 -18 16 -32 20 -32 4 0 8 -4 8
-10 0 -16 -38 -12 -47 5 -7 12 -10 11 -21 -5 -10 -17 -8 -20 23 -26 19 -3 35
-10 35 -15 0 -12 2 -12 -53 7 -26 9 -45 19 -42 24 3 4 -1 10 -9 13 -16 7 -26
-20 -17 -46 7 -20 20 -24 30 -9 4 7 13 6 24 -3 16 -11 13 -13 -28 -17 -25 -2
-53 0 -63 5 -13 6 -12 6 6 3 38 -7 22 22 -22 38 -16 6 -18 2 -13 -26 l6 -33
-17 35 c-9 19 -17 36 -18 38 -1 2 -17 -4 -35 -13 l-34 -15 32 5 c30 4 32 2 31
-26 -1 -20 -4 -26 -9 -17 -9 13 -66 19 -84 8 -50 -31 -73 52 -27 98 9 9 17 24
17 32 0 8 5 14 12 13 12 -3 14 22 7 68 -7 36 -31 32 -38 -5 -5 -23 -9 -27 -15
-17 -6 9 -11 2 -16 -27 -3 -22 -15 -49 -27 -61 -11 -12 -17 -29 -14 -37 3 -8
2 -13 -3 -10 -5 3 -23 3 -41 0 l-31 -7 26 -27 c26 -27 29 -48 10 -62 -7 -5 -7
-10 0 -15 17 -14 11 -38 -14 -52 -17 -9 -20 -15 -12 -21 16 -10 16 -21 -1 -31
-19 -13 22 -12 59 1 24 9 29 16 26 33 -4 21 -1 23 42 22 49 0 69 -16 61 -48
-4 -16 1 -18 31 -14 30 4 34 2 30 -13 -3 -13 0 -16 16 -12 14 3 18 1 13 -7 -4
-6 -12 -9 -17 -6 -16 11 -9 -7 9 -21 16 -12 15 -13 -4 -8 -12 3 -25 1 -28 -5
-10 -16 -23 -13 -23 4 0 8 6 15 12 15 6 0 11 10 10 23 -1 12 -5 21 -8 20 -4
-2 -6 -4 -5 -5 1 -2 -4 -13 -11 -25 -14 -28 -31 -30 -26 -4 2 14 -1 18 -11 14
-7 -3 -11 -9 -8 -14 3 -5 -3 -9 -13 -10 -13 -1 -12 -3 5 -7 13 -4 23 -10 23
-15 -1 -4 -1 -12 -1 -17 0 -7 -6 -8 -17 -2 -12 7 -21 4 -35 -12 -14 -16 -17
-17 -12 -3 3 9 1 17 -5 17 -9 0 -16 -28 -12 -53 0 -4 -4 -7 -9 -7 -6 0 -10 -5
-10 -11 0 -6 9 -9 20 -6 11 3 23 1 26 -4 3 -5 -4 -9 -15 -9 -15 0 -21 -6 -21
-21 0 -17 3 -19 13 -10 8 6 23 9 35 6 12 -2 22 0 22 4 0 7 37 8 71 2 4 -1 9
-14 11 -31 4 -28 3 -29 -24 -25 -15 3 -28 1 -28 -5 0 -5 -18 -13 -40 -16 -37
-6 -67 -24 -40 -24 6 0 8 -4 5 -10 -3 -5 -2 -10 4 -10 5 0 11 5 13 11 2 6 25
11 51 11 29 0 45 3 41 10 -4 7 0 7 12 0 11 -6 32 -8 48 -5 20 4 27 2 22 -6 -4
-7 1 -11 13 -12 40 -3 44 -4 49 -16 2 -7 -3 -13 -10 -13 -8 0 -15 -6 -15 -14
0 -8 6 -12 13 -9 6 2 15 -1 19 -6 3 -6 11 -9 16 -5 5 3 6 10 3 16 -8 13 12 7
134 -38 104 -38 114 -40 106 -19 -7 17 12 45 29 45 7 0 7 -4 -1 -12 -7 -7 -12
-17 -12 -22 0 -6 7 0 17 13 9 13 16 40 15 61 -2 34 1 38 26 43 17 3 34 -1 46
-11 18 -16 19 -16 12 13 -6 24 -5 28 5 18 7 -7 17 -13 22 -13 12 0 -13 23 -43
38 -41 21 -70 114 -39 124 7 2 13 21 14 41 1 21 5 41 9 44 11 12 6 84 -8 111
-8 15 -23 35 -35 46 -15 14 -19 26 -14 48 4 20 1 33 -8 39 -9 6 -10 9 -2 9 16
0 8 96 -13 145 -8 21 -31 54 -50 74 -33 35 -44 61 -25 61 5 0 11 -6 14 -14 7
-17 104 -66 131 -66 12 0 28 5 36 11 12 9 11 10 -7 6 -24 -5 -32 8 -10 16 7 3
5 6 -5 6 -10 1 -18 7 -18 14 0 9 -2 9 -8 0 -5 -8 -13 -9 -22 -3 -11 7 -12 10
-2 10 7 0 10 5 7 11 -4 6 -13 8 -21 5 -13 -5 -18 11 -18 66 0 10 -6 15 -17 13
-12 -3 -15 2 -12 16 4 14 0 19 -15 19 -12 0 -24 5 -28 12 -5 8 -2 9 9 5 10 -4
17 -2 17 4 0 7 9 9 23 4 12 -3 28 -7 35 -7 26 -2 62 -82 63 -140 0 -10 6 -18
14 -18 7 0 16 -6 18 -12 3 -7 4 11 3 40 -2 31 2 52 8 52 6 0 5 5 -2 12 -15 15
-16 64 -2 73 7 4 7 13 0 26 -8 14 -8 19 1 17 6 -2 13 2 16 9 2 7 -7 10 -26 9
-17 -1 -31 2 -31 7 0 4 -4 5 -10 2 -15 -10 -12 6 6 26 12 14 13 22 4 38 -9 19
-8 21 14 19 13 -1 22 -6 20 -10 -3 -4 5 -18 17 -30 12 -13 18 -17 14 -9 -5 9
-1 19 10 28 17 12 17 13 2 13 -9 0 -17 -5 -17 -12 0 -6 -3 -9 -6 -6 -9 9 20
49 32 44 6 -2 16 11 23 30 7 19 17 34 22 34 16 0 10 38 -9 52 -10 7 -21 21
-25 30 -5 14 -1 16 30 11 47 -8 41 14 -10 41 -36 19 -48 36 -26 36 5 0 7 5 4
10 -3 6 0 10 7 10 10 0 10 2 -1 9 -10 6 -10 10 -1 16 6 4 9 13 6 20 -3 8 0 16
7 19 7 2 6 5 -4 5 -8 1 -24 9 -35 20 -11 10 -30 24 -43 30 l-22 12 30 31 c30
31 31 32 11 50 -10 10 -23 18 -28 18 -5 0 -15 6 -22 14 -6 8 -19 12 -27 9 -12
-5 -14 -3 -8 7 6 10 2 12 -19 8 -14 -3 -29 -1 -33 5 -4 6 -1 7 7 2 9 -6 11 -4
6 4 -5 7 -15 10 -25 6 -13 -5 -14 -4 -3 6 18 19 15 40 -5 32 -11 -4 -14 -3 -9
5 5 8 1 10 -10 5 -13 -5 -16 -3 -11 10 7 18 -8 33 -18 17 -13 -21 -27 -10 -21
17 7 26 7 26 -18 10 -28 -19 -40 -22 -31 -8 3 6 -4 9 -15 8 -11 -1 -20 -8 -20
-17 0 -13 -1 -13 -10 0 -8 13 -11 13 -19 1 -7 -11 -11 -10 -20 5 -6 11 -11 15
-11 9 0 -5 -4 -4 -9 3 -6 11 -18 3 -47 -32z m200 -301 c12 -9 15 -15 7 -15 -7
0 -3 -8 10 -19 22 -17 25 -18 48 -2 14 9 22 11 18 4 -6 -9 -3 -11 7 -7 9 3 14
10 11 15 -6 9 29 4 47 -7 7 -4 8 -3 4 5 -10 16 44 4 63 -15 21 -19 -5 -40 -54
-42 -22 -1 -41 -6 -43 -12 -2 -5 -14 -10 -27 -10 -12 0 -26 -7 -29 -16 -4 -10
-12 -14 -22 -10 -11 4 -15 2 -11 -8 7 -17 -10 -25 -76 -35 -56 -9 -79 6 -45
30 61 43 69 51 62 72 -6 19 -5 20 9 8 9 -7 14 -18 10 -25 -4 -7 -1 -6 9 1 8 7
17 12 19 10 2 -1 -12 13 -31 32 -19 19 -29 31 -22 27 6 -4 12 -2 12 3 0 6 -4
11 -10 11 -5 0 -10 5 -10 10 0 14 22 12 44 -5z m-408 -91 c-3 -9 -6 -20 -6
-26 0 -7 -5 -6 -14 1 -12 10 -13 8 -9 -11 l6 -23 -29 25 c-16 14 -31 26 -34
28 -10 7 23 19 56 20 29 1 35 -2 30 -14z m217 -81 c-5 -12 -2 -15 10 -10 9 3
17 2 17 -2 0 -5 -7 -11 -15 -15 -8 -3 -20 -16 -25 -28 -13 -30 -33 -61 -44
-69 -4 -4 -5 -17 -1 -29 5 -16 4 -21 -6 -18 -8 3 -13 13 -13 22 1 9 -2 16 -7
16 -13 0 -8 63 6 72 6 5 6 8 -3 8 -8 0 -5 10 9 29 12 16 27 27 34 25 7 -3 16
-1 20 5 10 17 25 13 18 -6z m97 -58 c11 -13 15 -13 21 -3 7 10 9 10 9 -2 0 -9
3 -11 8 -5 5 7 19 5 42 -7 33 -18 33 -18 7 -13 -19 4 -44 -1 -72 -15 -42 -21
-43 -22 -27 -41 48 -57 53 -61 100 -61 17 0 21 -5 17 -18 -3 -10 -1 -21 5 -25
12 -8 13 -25 1 -25 -5 0 -11 8 -13 18 -2 12 -14 17 -43 19 -45 1 -95 9 -101
16 -12 12 -9 115 4 145 18 36 24 39 42 17z m222 6 c3 8 8 -1 12 -18 6 -27 2
-43 -23 -86 -17 -29 -39 -62 -50 -71 -11 -10 -18 -23 -15 -27 3 -5 3 -9 0 -9
-3 0 -10 10 -17 22 -10 18 -9 20 4 15 31 -12 96 117 77 153 -12 23 -13 40 -1
21 7 -11 9 -11 13 0z m-282 -21 c0 -4 -7 -13 -15 -20 -20 -16 -19 -84 1 -104
8 -9 12 -16 7 -16 -17 -1 32 -30 50 -30 20 0 47 -22 47 -39 0 -19 28 -12 35 9
4 11 10 18 15 15 14 -9 18 -44 6 -59 -14 -19 -66 -32 -66 -17 0 6 11 11 24 11
13 0 26 6 29 14 4 10 -4 13 -31 12 -24 -1 -36 3 -35 11 2 8 -4 10 -13 6 -11
-4 -24 3 -36 18 -11 13 -17 18 -13 12 3 -7 1 -13 -4 -13 -6 0 -11 5 -11 11 0
6 -8 9 -18 7 -11 -3 -19 0 -19 8 0 7 4 11 9 8 17 -10 7 12 -12 29 -27 22 -26
72 2 113 19 28 48 36 48 14z m161 -60 c31 -17 22 -30 -20 -30 -55 0 -75 9 -60
26 14 17 52 18 80 4z m-316 -177 c-4 -53 -12 -60 -63 -58 -23 1 -42 -5 -49
-14 -11 -14 -14 -14 -22 -2 -11 17 -3 43 10 35 5 -3 9 1 9 9 0 22 27 39 65 42
33 2 34 1 15 -15 -22 -19 -26 -40 -9 -40 5 0 8 4 4 9 -3 5 4 16 16 25 30 20
18 51 -15 42 -14 -3 -28 -2 -31 4 -4 6 10 10 34 10 l40 0 -4 -47z m66 2 c19
-8 30 -14 26 -15 -4 0 -2 -6 5 -14 7 -8 17 -12 22 -9 4 3 2 9 -5 14 -11 7 -11
9 1 9 20 -1 51 -25 43 -34 -4 -4 0 -4 9 -1 22 9 74 -46 73 -75 -1 -8 1 -19 4
-25 19 -36 -5 -38 -43 -4 -10 10 -24 15 -32 12 -18 -7 -18 -23 0 -23 8 0 18
-5 22 -12 5 -8 2 -9 -9 -5 -10 3 -17 3 -17 -2 0 -4 -12 -6 -26 -3 -21 4 -25 2
-19 -9 7 -11 5 -11 -10 1 -11 9 -16 10 -11 3 4 -7 4 -13 -1 -14 -4 0 -19 -2
-32 -3 -22 -3 -23 -2 -6 11 11 7 15 13 9 14 -5 0 1 4 13 9 16 6 20 14 16 30
-3 12 -12 24 -20 27 -9 3 -27 17 -41 29 l-25 24 24 1 c15 0 19 3 9 6 -25 10
-41 43 -20 43 6 0 10 -7 10 -15 0 -13 3 -14 14 -3 13 11 12 15 -7 30 -27 22
-20 22 24 3z m270 -33 c13 -6 14 -12 7 -32 -9 -24 -10 -24 -24 -6 -14 20 -14
20 -16 0 0 -10 -1 -26 0 -36 1 -9 -6 -19 -15 -22 -13 -5 -14 -4 -3 9 9 11 10
15 0 15 -6 0 -10 6 -7 13 2 6 -3 21 -12 31 -9 11 -11 16 -5 13 7 -4 17 0 24 8
13 16 25 18 51 7z m-62 -192 c10 -5 21 -16 25 -25 5 -13 2 -14 -16 -4 -18 10
-20 9 -15 -5 4 -9 2 -16 -4 -16 -6 0 -9 8 -7 18 1 9 -1 23 -5 30 -10 15 -2 15
22 2z m20 -157 c23 -19 19 -33 -11 -33 -17 0 -18 -2 -8 -15 11 -13 10 -14 -2
-10 -15 6 -21 75 -6 75 4 0 17 -8 27 -17z m-404 -103 c3 -5 -1 -10 -9 -10 -9
0 -16 -7 -16 -16 0 -8 5 -12 10 -9 6 3 13 0 16 -9 3 -8 13 -12 22 -9 15 4 15
3 2 -6 -20 -15 -50 -14 -50 2 0 8 -4 7 -11 -3 -7 -11 -8 -6 -3 20 3 19 8 38
11 43 6 10 21 9 28 -3z m546 -157 c2 1 -6 -8 -18 -20 -12 -13 -28 -23 -35 -23
-8 0 -6 5 5 11 9 5 17 19 17 31 0 16 3 18 13 9 8 -6 16 -10 18 -8z m-271 -79
c0 -29 -16 -64 -30 -64 -13 0 -13 46 0 71 15 27 30 24 30 -7z"/>
<path d="M650 1540 c0 -7 -16 -30 -35 -53 -19 -22 -33 -43 -30 -46 3 -2 11 1
17 7 16 16 29 15 22 -1 -7 -18 18 -38 52 -42 14 -1 30 -9 35 -16 18 -28 8 1
-16 49 -14 28 -25 61 -25 75 0 14 -4 29 -10 32 -5 3 -10 1 -10 -5z"/>
<path d="M970 945 c-7 -9 -8 -15 -2 -15 6 0 12 5 14 12 3 7 10 8 17 4 11 -7
11 -10 0 -17 -10 -6 -7 -8 9 -6 21 1 33 27 13 27 -5 0 -16 2 -24 5 -7 3 -20
-1 -27 -10z"/>
<path d="M804 743 c-12 -9 -15 -43 -3 -43 4 0 10 7 13 15 3 9 12 15 20 13 8
-2 16 2 18 7 4 12 -33 18 -48 8z"/>
<path d="M933 352 c10 -10 17 -32 17 -48 0 -22 3 -26 10 -14 5 8 10 28 10 44
0 21 4 27 16 22 8 -3 12 -2 9 4 -3 6 -22 10 -42 10 -34 0 -35 -1 -20 -18z"/>
<path d="M1401 354 c-1 -11 5 -28 12 -36 10 -15 14 -15 25 -2 11 11 10 14 -3
14 -9 0 -20 10 -25 23 -8 21 -9 21 -9 1z"/>
<path d="M983 290 c-3 -11 -9 -20 -14 -20 -5 0 -9 -18 -9 -39 0 -33 -4 -40
-22 -44 -15 -3 -11 -5 12 -6 l36 -1 -4 40 c-4 40 12 75 29 64 5 -3 6 2 3 10
-9 22 -25 20 -31 -4z"/>
<path d="M894 274 c-4 -14 -4 -28 0 -31 3 -4 6 1 6 9 0 9 7 18 15 22 8 3 15 1
15 -4 0 -6 5 -10 10 -10 17 0 -5 33 -24 36 -10 1 -18 -7 -22 -22z"/>
<path d="M1046 278 c4 -13 7 -29 7 -36 0 -8 6 -7 19 5 20 17 25 53 7 53 -6 0
-8 -9 -4 -21 5 -15 4 -19 -4 -15 -6 4 -11 14 -11 22 0 8 -5 14 -11 14 -6 0 -8
-9 -3 -22z"/>
</g>
</svg>
