<?xml version="1.0" standalone="no"?>
<!DOCTYPE svg PUBLIC "-//W3C//DTD SVG 20010904//EN"
 "http://www.w3.org/TR/2001/REC-SVG-20010904/DTD/svg10.dtd">
<svg version="1.0" xmlns="http://www.w3.org/2000/svg"
 width="230.000000pt" height="230.000000pt" viewBox="0 0 230.000000 230.000000"
 preserveAspectRatio="xMidYMid meet">
<metadata>
Created by potrace 1.15, written by Peter Selinger 2001-2017
</metadata>
<g transform="translate(0.000000,230.000000) scale(0.100000,-0.100000)"
fill="#000000" stroke="none">
<path d="M1034 2116 c-27 -32 -40 -42 -46 -33 -6 9 -11 8 -19 -6 -6 -9 -14
-15 -20 -12 -5 4 -12 -1 -15 -10 -6 -14 -10 -13 -31 7 l-24 23 3 -40 c3 -35 0
-40 -19 -43 -13 -2 -23 -9 -23 -15 0 -9 -3 -8 -8 1 -7 10 -13 9 -28 -5 -11
-10 -23 -26 -27 -35 -4 -11 -13 -15 -26 -11 -15 4 -21 1 -21 -12 0 -11 -5 -15
-15 -11 -8 3 -15 1 -15 -4 0 -6 -10 -10 -21 -10 -17 0 -19 -3 -10 -13 15 -18
4 -27 -33 -27 -23 0 -27 -3 -18 -12 17 -17 15 -28 -5 -21 -13 5 -15 2 -11 -15
4 -12 -1 -28 -12 -40 -14 -14 -16 -22 -7 -31 8 -8 6 -11 -8 -12 -19 0 -19 -1
0 -9 14 -6 15 -9 5 -10 -10 0 -6 -5 9 -14 15 -8 19 -16 13 -20 -6 -4 -9 -13
-6 -21 4 -9 -3 -19 -18 -25 -30 -14 -50 -44 -42 -64 5 -14 10 -14 41 -1 19 8
45 12 58 9 21 -5 24 -1 30 38 11 61 76 127 125 125 19 -1 34 -5 33 -9 -2 -5
-3 -15 -3 -24 0 -13 -3 -14 -14 -5 -12 10 -13 8 -9 -11 l6 -23 -25 23 c-30 27
-42 29 -27 3 10 -14 9 -23 -4 -41 -8 -12 -13 -28 -10 -35 2 -8 -1 -23 -7 -35
-9 -16 -9 -25 0 -36 7 -7 10 -20 7 -28 -3 -8 0 -20 8 -26 8 -7 14 -7 17 -1 1
6 20 12 41 15 44 5 88 -6 69 -18 -7 -4 -12 -17 -12 -30 0 -29 -47 -64 -80 -60
-21 3 -22 2 -8 -6 11 -7 15 -19 12 -33 -13 -65 -16 -107 -6 -107 5 0 13 7 16
16 4 9 2 13 -5 8 -7 -4 -10 -2 -8 5 3 7 8 11 12 9 5 -2 15 12 24 29 13 28 19
32 42 26 32 -7 40 -14 24 -20 -16 -6 -17 -33 -2 -33 5 0 8 4 4 9 -3 5 3 16 13
23 28 20 33 44 11 45 -10 1 -19 -2 -19 -8 0 -5 5 -9 12 -9 6 0 9 -3 6 -6 -4
-3 -19 3 -34 13 l-28 18 39 5 c51 6 66 -6 48 -40 -7 -14 -13 -32 -13 -41 0
-20 -12 -25 -60 -24 -35 0 -67 -25 -56 -44 3 -4 -5 -6 -18 -4 -18 4 -25 -2
-36 -26 -7 -17 -18 -31 -24 -31 -8 0 -7 -3 1 -8 8 -5 2 -13 -17 -24 -17 -10
-32 -13 -35 -7 -8 12 -25 12 -25 -1 0 -20 31 -22 76 -5 34 13 43 20 33 27 -10
7 -7 7 8 3 22 -6 58 11 100 48 l22 19 16 -38 c18 -43 12 -89 -13 -104 -14 -8
-14 -9 -2 -10 13 0 13 -1 0 -10 -11 -7 -3 -10 28 -10 32 0 49 -6 65 -23 12
-13 28 -22 35 -19 9 2 2 12 -17 26 -17 13 -28 26 -24 30 4 3 -11 4 -33 2 -21
-2 -33 -2 -26 1 6 2 10 9 7 13 -3 5 0 12 6 16 8 4 9 3 5 -4 -4 -7 -1 -12 8
-12 8 0 18 5 21 11 4 6 14 8 22 5 8 -3 11 -1 8 4 -3 6 5 10 19 10 15 0 26 -7
29 -17 4 -16 5 -16 6 -2 1 22 32 33 43 17 6 -10 8 -8 8 5 0 10 8 17 18 17 26
0 34 -11 21 -27 -9 -10 -8 -13 0 -13 8 0 6 -6 -4 -16 -9 -9 -19 -13 -23 -10
-3 4 0 11 7 15 10 6 10 10 1 16 -7 4 -14 -1 -17 -15 -3 -13 -11 -19 -20 -16
-8 3 -12 2 -8 -3 3 -5 -1 -11 -7 -14 -7 -2 23 -2 67 1 76 4 79 4 65 -14 -11
-13 -12 -16 -1 -10 8 5 17 3 22 -5 7 -12 9 -12 9 1 0 10 5 7 16 -8 14 -20 14
-24 0 -38 -9 -8 -16 -20 -16 -25 0 -15 35 -6 36 9 1 6 2 17 3 22 1 14 41 13
41 -1 0 -8 4 -8 14 0 21 18 26 -1 5 -21 -15 -14 -18 -14 -23 -2 -5 12 -8 13
-20 2 -8 -7 -11 -17 -6 -22 11 -11 -8 -53 -27 -60 -11 -5 -11 -1 2 16 23 33
20 51 -5 36 -11 -7 -20 -18 -20 -25 0 -14 -19 -17 -35 -5 -15 10 -12 78 3 75
16 -4 15 5 -3 23 -8 9 -15 11 -15 5 0 -6 -7 -11 -15 -11 -18 0 -20 16 -2 23 7
3 5 6 -5 6 -22 1 -23 -11 -3 -49 9 -18 13 -40 9 -55 -5 -20 -10 -24 -30 -19
-18 5 -24 2 -24 -10 0 -12 -10 -16 -37 -18 -51 -2 -56 -2 -70 -11 -20 -13 -41
4 -47 39 -4 19 -8 34 -10 34 -2 0 -19 -7 -37 -16 l-34 -15 33 5 c30 5 32 4 32
-25 0 -27 -2 -30 -15 -19 -8 7 -21 10 -29 7 -7 -3 -18 -1 -24 5 -8 8 -16 8
-27 -2 -8 -7 -15 -9 -16 -4 0 5 -4 -1 -10 -14 -5 -13 -13 -20 -19 -17 -5 3
-10 -1 -10 -9 0 -9 3 -15 8 -15 4 1 9 0 12 -1 3 -1 13 -3 23 -5 19 -4 24 11 5
17 -7 3 -6 7 5 11 21 8 23 -14 5 -44 -11 -17 -10 -22 5 -30 9 -6 17 -16 17
-23 0 -7 19 -18 42 -25 30 -10 38 -15 27 -22 -10 -6 -7 -9 14 -9 19 0 27 -5
27 -17 0 -14 -2 -15 -9 -4 -7 10 -10 10 -16 1 -4 -7 -1 -16 6 -21 19 -12 29
-11 29 2 0 8 5 8 15 -1 8 -7 15 -9 15 -4 0 11 20 -18 20 -28 0 -5 -8 -8 -17
-8 -15 0 -16 2 -3 10 12 8 9 10 -13 10 -16 0 -35 -7 -43 -15 -18 -18 -38 -20
-28 -3 5 8 2 9 -11 4 -11 -4 -22 -2 -27 6 -12 20 -10 38 5 38 14 0 16 27 3 48
-4 6 -15 12 -24 11 -15 0 -15 -1 -1 -7 9 -4 15 -14 14 -22 -4 -28 -43 -91 -47
-78 -4 10 -11 8 -31 -5 -22 -14 -25 -14 -21 -2 4 8 1 15 -5 15 -9 0 -16 -28
-12 -53 0 -4 -4 -7 -9 -7 -6 0 -10 -5 -10 -11 0 -7 10 -9 25 -5 14 4 25 2 25
-4 0 -5 -9 -10 -20 -10 -11 0 -20 -6 -20 -13 0 -13 15 -13 85 -2 43 6 65 -3
65 -29 0 -12 5 -27 12 -34 12 -12 7 -12 -42 0 -8 1 -14 -2 -13 -7 1 -6 -17
-12 -39 -12 -70 -3 -65 -20 5 -19 36 1 63 5 60 9 -3 5 3 4 13 -1 11 -6 32 -8
48 -5 20 4 27 2 22 -6 -5 -7 2 -11 21 -11 27 0 53 -15 53 -31 0 -4 -10 -5 -22
-2 -23 5 -23 5 -3 -10 23 -17 41 -20 37 -5 -3 12 15 7 136 -38 104 -38 114
-40 106 -19 -7 16 12 45 28 45 6 0 4 -8 -3 -18 -13 -15 -12 -16 4 -3 11 9 17
27 17 56 0 39 3 43 28 48 17 3 34 -1 46 -11 18 -16 19 -16 12 11 -4 19 -2 27
6 27 7 0 0 7 -17 15 -16 9 -36 27 -42 42 -15 31 -17 83 -4 83 13 0 23 63 10
70 -7 5 -5 9 5 13 11 5 15 18 15 49 -2 48 -12 72 -43 106 -19 21 -26 49 -25
100 3 111 -12 158 -71 226 -30 33 -38 56 -21 56 5 0 11 -6 14 -14 7 -17 104
-66 131 -66 12 0 28 5 36 11 12 9 11 10 -7 6 -24 -5 -32 8 -10 16 7 3 5 6 -5
6 -10 1 -18 7 -18 14 0 9 -2 9 -8 0 -5 -8 -13 -9 -22 -3 -11 7 -12 10 -2 10 7
0 10 5 7 11 -4 6 -13 8 -20 5 -11 -4 -30 44 -26 67 0 4 -5 7 -13 7 -9 0 -12 7
-9 20 4 15 0 20 -16 20 -12 0 -20 -3 -18 -7 3 -5 0 -19 -5 -33 -9 -24 -10 -24
-24 -6 -14 20 -14 20 -16 0 0 -10 -1 -25 0 -33 0 -8 -6 -20 -13 -27 -11 -11
-14 -11 -19 2 -8 22 -8 26 4 19 6 -4 7 2 1 17 -5 13 -13 22 -18 21 -5 -1 -10
5 -10 13 0 8 9 14 19 14 10 0 18 4 18 9 0 4 -11 6 -25 3 -15 -2 -25 0 -25 7 0
6 8 11 19 11 10 0 24 6 30 14 9 11 4 13 -26 12 -24 -1 -37 3 -36 10 1 7 -6 10
-17 7 -12 -3 -22 1 -26 10 -3 9 -11 14 -19 11 -7 -3 -15 2 -19 12 -5 12 -10
14 -19 5 -10 -8 -14 -7 -14 4 0 8 4 12 9 9 17 -10 7 12 -12 29 -27 23 -26 75
3 113 31 43 49 33 25 -15 -15 -31 -16 -43 -7 -69 6 -18 15 -32 20 -32 5 0 8
-5 7 -12 -3 -10 18 -20 70 -34 8 -2 16 -13 19 -24 7 -28 28 -25 41 5 7 14 12
27 12 29 0 1 -15 3 -32 3 -39 1 -87 8 -93 15 -13 13 -11 116 3 146 18 36 24
39 42 17 11 -13 15 -13 21 -3 7 10 9 10 9 -2 0 -9 3 -11 8 -5 4 7 19 4 41 -7
l34 -17 -34 2 c-19 1 -44 -2 -57 -7 -19 -6 -24 -4 -29 13 -3 12 -9 21 -14 21
-14 0 -11 -11 7 -32 15 -16 15 -18 1 -24 -14 -5 -14 -8 1 -26 48 -56 53 -60
100 -60 17 0 21 -5 17 -19 -4 -11 -2 -19 4 -19 6 0 11 -7 11 -15 0 -8 -4 -15
-10 -15 -5 0 -10 5 -10 10 0 6 -5 10 -11 10 -6 0 -7 -5 -2 -12 12 -20 13 -41
2 -54 -6 -8 -3 -13 11 -17 13 -3 20 0 20 10 0 9 6 13 15 9 8 -3 15 0 15 5 0 7
9 9 23 4 12 -3 28 -7 35 -7 26 -2 62 -82 63 -140 0 -10 6 -18 14 -18 7 0 16
-6 18 -12 3 -7 3 31 1 86 -2 54 -7 103 -11 109 -4 6 -1 7 7 2 10 -6 12 -4 7 8
-4 11 -1 17 8 17 8 0 15 4 15 8 0 5 -13 8 -30 7 -16 -1 -30 2 -30 6 0 5 -6 6
-12 4 -8 -3 -14 4 -14 20 -1 14 2 25 8 25 5 0 6 -4 3 -10 -3 -5 -2 -10 4 -10
18 0 20 16 6 44 -14 26 -14 28 3 21 9 -4 23 -8 30 -8 7 0 11 -5 9 -11 -3 -6 1
-16 8 -22 9 -9 15 -7 23 7 8 12 8 19 2 19 -5 0 -10 -5 -10 -12 0 -6 -3 -9 -6
-6 -9 9 20 49 32 44 6 -2 16 11 23 30 7 19 17 34 22 34 16 0 10 38 -9 52 -10
7 -21 20 -24 29 -5 13 -1 16 22 15 42 -2 41 15 -2 38 -37 19 -49 36 -27 36 5
0 7 5 4 10 -3 6 -2 10 2 10 5 0 9 12 8 28 0 15 4 30 10 34 6 5 4 8 -6 8 -8 0
-24 8 -35 19 -11 10 -30 24 -43 30 l-22 12 30 31 c29 30 30 33 13 48 -9 9 -25
19 -34 23 -10 3 -18 11 -18 17 0 7 -8 9 -21 5 -16 -5 -19 -4 -14 5 6 10 1 12
-19 8 -14 -3 -29 -1 -33 5 -4 6 -1 7 7 2 9 -6 11 -4 6 4 -5 7 -15 10 -25 6
-13 -5 -14 -4 -3 6 18 19 15 40 -5 32 -11 -4 -14 -3 -9 5 5 8 1 10 -10 5 -13
-5 -16 -3 -11 10 7 18 -8 33 -18 17 -13 -21 -27 -10 -21 17 7 26 7 26 -18 10
-28 -19 -40 -22 -31 -8 3 6 -4 9 -15 8 -11 -1 -20 -5 -20 -9 0 -4 -7 -5 -15
-2 -9 4 -15 0 -15 -7 -1 -9 -6 -7 -15 5 -8 11 -15 16 -15 10 0 -5 -4 -3 -9 4
-6 11 -18 3 -47 -32z m200 -301 c12 -9 15 -15 7 -15 -7 0 -3 -8 10 -19 22 -17
25 -18 49 -2 24 15 24 15 10 -3 -14 -18 -14 -18 7 -6 12 8 19 18 17 22 -3 4 7
3 21 -2 33 -13 38 -13 30 0 -9 15 46 1 64 -16 21 -19 -5 -40 -54 -42 -22 -1
-41 -6 -43 -12 -2 -5 -12 -10 -23 -10 -18 0 -68 -39 -51 -41 17 -1 -46 -21
-91 -28 -56 -9 -79 6 -45 30 61 43 69 51 62 72 -6 19 -5 20 9 8 9 -7 14 -18
10 -25 -4 -7 -1 -6 9 1 8 7 17 12 19 10 2 -1 -12 13 -31 32 -19 19 -29 31 -22
27 6 -4 12 -2 12 3 0 6 -4 11 -10 11 -5 0 -10 5 -10 10 0 14 22 12 44 -5z
m-227 -479 c15 -1 18 -5 12 -12 -6 -8 -4 -14 6 -17 8 -4 14 -3 14 1 -3 20 4
22 29 5 15 -10 39 -25 55 -33 15 -7 27 -22 27 -32 0 -19 19 -20 33 -3 5 6 6 1
1 -10 -4 -11 -7 -35 -7 -52 -1 -36 -8 -41 -31 -18 -8 8 -27 14 -43 14 l-28 -1
30 -8 30 -7 -28 -11 c-16 -7 -33 -9 -39 -6 -6 4 -14 1 -18 -5 -4 -7 -24 -14
-45 -15 -33 -3 -36 -2 -22 9 9 6 14 15 10 18 -3 4 1 7 10 7 10 0 17 5 17 10 0
14 -33 12 -49 -2 -11 -11 -13 -10 -9 2 3 8 17 16 31 18 30 4 36 19 11 29 -9 3
-28 17 -42 29 l-25 24 24 1 c17 1 19 3 7 6 -10 2 -18 9 -18 14 0 6 -4 8 -8 5
-5 -3 -9 1 -9 9 0 8 4 15 9 15 4 0 8 7 8 16 0 12 5 14 18 8 9 -4 27 -8 39 -8z"/>
<path d="M815 1079 c-5 -21 -10 -27 -15 -19 -5 8 -10 -2 -15 -28 -3 -22 -15
-49 -27 -61 -11 -13 -17 -29 -14 -38 6 -14 4 -14 -10 -2 -13 11 -18 11 -21 2
-3 -7 -14 -13 -26 -13 -20 0 -19 -2 7 -29 27 -28 30 -48 11 -64 -7 -6 -6 -10
2 -13 16 -7 5 -35 -21 -56 -12 -10 -15 -18 -9 -18 15 0 13 -21 -2 -32 -15 -11
30 -10 59 2 19 7 26 17 26 35 0 14 3 24 8 24 4 -1 18 0 32 1 18 2 20 4 8 7
-10 2 -18 10 -18 16 0 7 -5 6 -11 -3 -7 -11 -8 -6 -3 20 3 19 10 40 15 46 5 6
6 19 3 28 -9 23 16 96 31 96 7 0 12 8 11 18 0 9 4 16 9 15 10 -1 12 28 7 80
-3 29 -30 19 -37 -14z"/>
</g>
</svg>
